<?xml version="1.0" encoding="UTF-8"?>
<svg version="1.1" xmlns="http://www.w3.org/2000/svg" width="1000" height="1000">
<path d="M0 0 C0.87138611 -0.0071553 1.74277222 -0.01431061 2.64056396 -0.02168274 C3.58908234 -0.02437164 4.53760071 -0.02706055 5.51486206 -0.02983093 C6.52041138 -0.03640213 7.52596069 -0.04297333 8.5619812 -0.04974365 C11.89507121 -0.06947302 15.22811593 -0.08114497 18.56124878 -0.09111023 C20.2762237 -0.09722352 20.2762237 -0.09722352 22.02584457 -0.10346031 C28.08956471 -0.12432988 34.15326222 -0.13862192 40.2170105 -0.147995 C46.43909362 -0.15899842 52.66081308 -0.19332527 58.88276863 -0.23316669 C63.69938757 -0.25950798 68.51592266 -0.26770278 73.33260727 -0.27127647 C75.62319236 -0.27610554 77.91377465 -0.28761238 80.20428848 -0.30631447 C103.98794708 -0.48827408 125.46362735 2.16201563 143.61593628 19.14717102 C152.52877552 27.97305574 158.25268596 37.93431146 163.55343628 49.20967102 C164.01814331 50.18951965 164.48285034 51.16936829 164.9616394 52.1789093 C169.58100556 61.97166364 174.04354437 71.83599221 178.50656128 81.70063782 C183.62386665 93.00490273 188.82594861 104.26848603 194.05343628 115.52217102 C203.91385357 136.75721687 213.66573899 158.04055246 223.34640503 179.35810852 C223.65264297 180.03245941 223.95888092 180.7068103 224.2743988 181.40159607 C225.50779791 184.1178061 226.74117016 186.83402805 227.97387695 189.55055237 C231.5998094 197.54011484 235.24229878 205.5217298 238.91281128 213.49092102 C239.27489182 214.27709305 239.63697235 215.06326508 240.01002502 215.8732605 C241.46998467 219.04272701 242.9300868 222.21212767 244.39074707 225.38127136 C249.08960342 235.58072818 253.71156728 245.80877385 258.24093628 256.08467102 C261.62547996 263.7632144 265.11852089 271.31888383 268.94406128 278.78779602 C271.32382818 283.56957063 273.48567306 288.44073505 275.66110229 293.31806946 C279.46862228 301.84778682 283.35174144 310.34198642 287.24093628 318.83467102 C291.28808974 327.6748774 295.3344572 336.51534794 299.35031128 345.36982727 C299.65176056 346.03444473 299.95320984 346.69906219 300.26379395 347.38381958 C300.87046857 348.72150472 301.47712755 350.05919697 302.08377075 351.39689636 C308.89282293 366.41066628 315.78522361 381.38505806 322.71505737 396.34346008 C323.0859549 397.14494476 323.45685242 397.94642944 323.83898926 398.77220154 C324.53000827 400.26533442 325.22181888 401.75810135 325.91461182 403.25041199 C333.3604007 419.34410064 333.3604007 419.34410064 331.71749878 425.52998352 C331.24220164 426.78391236 330.74883108 428.03108772 330.24093628 429.27217102 C329.83754028 430.29347107 329.83754028 430.29347107 329.42599487 431.33540344 C328.51123759 433.61564201 327.56700754 435.88184982 326.61593628 438.14717102 C326.27175659 438.97781067 325.9275769 439.80845032 325.57296753 440.66426086 C321.26035052 450.98067908 316.89215267 460.53480312 309.61593628 469.14717102 C308.66267456 470.34019836 308.66267456 470.34019836 307.69015503 471.55732727 C296.39543141 485.11552256 281.00777382 491.56278132 264.05343628 494.83467102 C244.06983808 496.65136177 224.78944526 492.21271207 208.61593628 480.14717102 C207.85023315 479.57611633 207.08453003 479.00506165 206.29562378 478.41670227 C191.98670218 466.72526633 185.07615626 449.53312974 177.61593628 433.14717102 C177.04727746 431.90278132 176.47842688 430.65847924 175.90939331 429.41426086 C173.46504258 424.06554234 171.02843589 418.71336268 168.60543823 413.35493469 C163.66375944 402.4267426 158.65199758 391.53215693 153.61593628 380.64717102 C147.10386875 366.5663257 140.64869347 352.46103989 134.24003601 338.33287048 C133.93740341 337.66573029 133.63477081 336.99859009 133.32296753 336.31123352 C133.02053635 335.64449615 132.71810516 334.97775879 132.4065094 334.29081726 C128.84573174 326.44430401 125.26256771 318.60803743 121.67843628 310.77217102 C121.34681488 310.04705322 121.01519348 309.32193542 120.67352295 308.57484436 C118.32150936 303.43205079 115.96881731 298.28956777 113.61593628 293.14717102 C111.26314037 288.00496031 108.91054772 282.86265682 106.55862427 277.720047 C105.88774256 276.25314248 105.2168033 274.78626428 104.54580688 273.31941223 C101.00082696 265.56908137 97.46180606 257.81615658 93.94406128 250.05342102 C86.68924368 234.04677157 79.35770098 218.07820104 71.95562744 202.13905334 C66.14238031 189.62042494 60.37306832 177.08292508 54.64797974 164.52375793 C49.16556364 152.50028081 43.6192536 140.50724302 38.05343628 128.52217102 C31.68159217 114.79930243 25.36028609 101.05531253 19.1166687 87.27363586 C18.51357345 85.94241231 17.91046472 84.61119487 17.30734253 83.27998352 C17.00908066 82.62158478 16.71081879 81.96318604 16.40351868 81.28483582 C14.12130576 76.25125343 11.82280666 71.22525986 9.51828003 66.20185852 C3.35570024 52.76862578 -2.80448429 39.33385791 -8.82156372 25.83467102 C-9.50363892 24.3235675 -9.50363892 24.3235675 -10.19949341 22.78193665 C-15.06062073 11.79189388 -15.06062073 11.79189388 -13.69656372 6.45967102 C-11.90838535 3.30907103 -10.00836064 1.6443207 -6.5252552 0.57824421 C-4.29478003 0.12919607 -2.2741204 0.01287864 0 0 Z " fill="#FEFEFE" transform="translate(367.3840637207031,271.8528289794922)"/>
<path d="M0 0 C1.01734726 -0.00686325 2.03469452 -0.0137265 3.08287048 -0.02079773 C6.43706346 -0.0390539 9.79078763 -0.03522646 13.14501953 -0.02954102 C15.49325715 -0.0341065 17.84149343 -0.03941316 20.18972778 -0.04542542 C25.11400777 -0.05435662 30.03812563 -0.05193683 34.96240234 -0.04199219 C41.23050944 -0.03055939 47.49804838 -0.0506268 53.76608086 -0.07990932 C58.62042729 -0.09839214 63.47464098 -0.09795397 68.32901382 -0.0922718 C70.63715532 -0.09211976 72.94530649 -0.09806614 75.25341415 -0.11056328 C91.28986509 -0.18510085 107.45389692 0.23690504 121.96533203 7.96655273 C122.61429443 8.30170898 123.26325684 8.63686523 123.93188477 8.98217773 C130.82634276 12.73739929 136.25137337 17.77098481 141.65283203 23.40405273 C142.33990234 24.1065918 143.02697266 24.80913086 143.73486328 25.53295898 C151.71497806 34.13896512 156.17407019 44.50491462 160.85595703 55.10717773 C163.92434144 62.04854514 167.08622611 68.946243 170.24835205 75.84524536 C171.99170111 79.64920263 173.73251262 83.45432028 175.47314453 87.25952148 C175.82287323 88.02401108 176.17260193 88.78850067 176.53292847 89.57615662 C179.77729448 96.67093619 183.00645731 103.77257959 186.23190308 110.87597656 C197.29621862 135.24188946 208.37722138 159.59832519 219.71777344 183.8371582 C227.85184712 201.22568469 235.79197067 218.70198885 243.72677612 236.18203735 C249.19336186 248.22261035 254.70643131 260.24140685 260.23419189 272.2539978 C265.54541848 283.79763322 270.82326218 295.35585505 276.0708313 306.92855835 C279.97723182 315.54243645 283.90830674 324.14433041 287.87046814 332.73271179 C291.44887534 340.48981167 295.00909752 348.25515568 298.56262207 356.02368164 C299.67197983 358.44586015 300.78475487 360.86644787 301.89794922 363.28686523 C303.75071561 367.31922394 305.58804204 371.35832969 307.41555786 375.40219116 C308.10099191 376.91331828 308.7909611 378.4223988 309.48605347 379.92910767 C315.40597858 392.77570074 320.50764891 406.02173425 320.15283203 420.40405273 C320.1325293 421.66040527 320.1325293 421.66040527 320.11181641 422.94213867 C319.53018882 440.74941103 312.6759222 458.15737375 300.65283203 471.40405273 C300.04955078 472.08725586 299.44626953 472.77045898 298.82470703 473.47436523 C285.5510823 487.66527298 266.74847847 494.52742258 247.65283203 495.46655273 C227.18321322 495.54778138 209.0332705 486.56586967 194.65283203 472.40405273 C184.7982431 462.56933193 179.29482609 449.89131946 173.71533203 437.34155273 C173.0670053 435.89720012 172.41789758 434.45319786 171.76806641 433.00952148 C170.7540056 430.75628968 169.74048096 428.50283152 168.72940063 426.2482605 C165.40891048 418.84458641 162.03509788 411.46573073 158.65429688 404.08944702 C156.9735537 400.42173311 155.29539963 396.75283608 153.61767578 393.08374023 C153.28653778 392.35956406 152.95539978 391.63538788 152.61422729 390.88926697 C149.44351551 383.95181248 146.28980717 377.00667519 143.13748169 370.06085205 C136.81633593 356.1332867 130.44769458 342.22808208 124.05493164 328.33325195 C120.58996665 320.80118807 117.12942604 313.26721308 113.68798828 305.72436523 C113.36517883 305.01687134 113.04236938 304.30937744 112.70977783 303.58044434 C112.05835816 302.15263396 111.40695028 300.72481821 110.7555542 299.29699707 C104.58293028 285.76801112 98.35320702 272.26649181 92.09033203 258.77905273 C85.73760886 245.09773053 79.44080156 231.39311385 73.21508789 217.65356445 C68.5622788 207.38770512 63.86511726 197.14273562 59.15283203 186.90405273 C53.80921249 175.29300604 48.49312606 163.67016457 43.21533203 152.02905273 C37.36775985 139.13183787 31.44694503 126.26942406 25.50238037 113.41665649 C19.92570527 101.35740448 14.39891674 89.27674797 8.91522217 77.17495728 C4.58609341 67.62347664 0.20552005 58.09773461 -4.22216797 48.59155273 C-11.86206112 32.1678128 -11.86206112 32.1678128 -15.59716797 23.96655273 C-15.96825684 23.1617749 -16.3393457 22.35699707 -16.72167969 21.52783203 C-20.8809243 12.33891944 -20.8809243 12.33891944 -19.34716797 6.77905273 C-15.05341737 -0.46665141 -7.61601172 -0.03614025 0 0 Z " fill="#FEFEFE" transform="translate(141.34716796875,271.595947265625)"/>
<path d="M0 0 C0.96659546 -0.00335861 1.93319092 -0.00671722 2.92907715 -0.01017761 C6.11418961 -0.01965223 9.29924934 -0.02162877 12.484375 -0.02270508 C14.70345074 -0.02591937 16.92252627 -0.02928357 19.14160156 -0.03279114 C23.78841646 -0.03877315 28.43521278 -0.04063192 33.08203125 -0.04003906 C39.0338422 -0.03993733 44.98553417 -0.05360531 50.93731689 -0.07081127 C55.51839749 -0.08193159 60.09944928 -0.08395828 64.68054199 -0.08342934 C66.87496349 -0.08460879 69.06938575 -0.08902864 71.26379395 -0.0967617 C74.33219754 -0.10656494 77.40034219 -0.10368245 80.46875 -0.09765625 C81.37282593 -0.10327576 82.27690186 -0.10889526 83.20837402 -0.11468506 C88.98702832 -0.08586375 93.70699337 0.41600255 98.609375 3.77026367 C100.91266904 7.1366165 100.69281828 10.22852676 100.234375 14.14526367 C99.36006181 17.31008927 98.12896096 20.27512761 96.8359375 23.28979492 C96.47746735 24.15409622 96.11899719 25.01839752 95.74966431 25.90888977 C91.94625078 35.00493136 87.92864922 44.00993137 83.88327026 53.00036621 C77.33065454 67.56954836 70.86814585 82.17080396 64.671875 96.89526367 C63.55749974 99.54248679 62.44311641 102.18970624 61.328125 104.83666992 C61.06508072 105.46119049 60.80203644 106.08571106 60.53102112 106.72915649 C57.54581661 113.80091556 54.4465986 120.82132183 51.34106445 127.84082031 C47.81077867 135.82247612 44.32576401 143.82320121 40.859375 151.83276367 C40.44924164 152.78007355 40.44924164 152.78007355 40.03082275 153.746521 C37.57887135 159.41012 35.12905721 165.07464109 32.68115234 170.73999023 C25.53163591 187.28594875 18.32083426 203.80361826 11.06552124 220.30343628 C6.13012417 231.52814999 1.22073487 242.7632916 -3.640625 254.02026367 C-7.54778391 263.06445677 -11.50056026 272.08595672 -15.515625 281.08276367 C-20.4686224 292.18310417 -25.34855493 303.31409256 -30.203125 314.45776367 C-30.74649506 315.70479568 -30.74649506 315.70479568 -31.30084229 316.97702026 C-35.04550174 325.57310986 -38.7816258 334.17280031 -42.49609375 342.78198242 C-52.22932556 365.34009684 -52.22932556 365.34009684 -55.890625 373.33276367 C-56.63699219 374.9627832 -56.63699219 374.9627832 -57.3984375 376.62573242 C-58.67896812 378.98556742 -59.64090184 380.52516227 -61.765625 382.14526367 C-68.56696978 383.6810512 -68.56696978 383.6810512 -72.1628418 382.07373047 C-75.48475574 379.61244182 -76.85931338 376.77230597 -78.54296875 373.11010742 C-78.88093979 372.4047435 -79.21891083 371.69937958 -79.56712341 370.97264099 C-80.64870788 368.70377526 -81.70835906 366.42555001 -82.765625 364.14526367 C-83.46058605 362.66731994 -84.15605864 361.18961665 -84.85205078 359.7121582 C-87.03582881 355.05548671 -89.18343641 350.38253549 -91.328125 345.70776367 C-92.11819108 343.99057881 -92.90839548 342.27345759 -93.69873047 340.55639648 C-99.85492889 327.1712577 -105.95684816 313.76159345 -112.04296875 300.34448242 C-115.65868734 292.37365299 -119.29048956 284.41021817 -122.92886353 276.44970703 C-123.94140152 274.23342447 -124.95259161 272.01653071 -125.96362305 269.79956055 C-129.07452628 262.98436222 -132.20811371 256.18172515 -135.40625 249.40698242 C-135.96546143 248.21645264 -136.52467285 247.02592285 -137.10083008 245.79931641 C-138.13433924 243.60364092 -139.17530329 241.41145162 -140.2253418 239.22363281 C-145.74066196 227.48369871 -145.74066196 227.48369871 -143.99560547 221.50878906 C-142.70261385 217.99999191 -141.25962418 214.57155665 -139.765625 211.14526367 C-139.31259003 210.09045807 -139.31259003 210.09045807 -138.85040283 209.01434326 C-136.38295393 203.26936671 -133.85851849 197.55022488 -131.328125 191.83276367 C-130.52349796 190.00829077 -129.71922224 188.18366289 -128.9152832 186.35888672 C-127.29718969 182.68659406 -125.67788489 179.01483972 -124.05761719 175.34350586 C-120.84208191 168.05440126 -117.64525232 160.75714363 -114.453125 153.45776367 C-114.02993988 152.49043808 -114.02993988 152.49043808 -113.59820557 151.50357056 C-106.2493604 134.70308768 -98.96888094 117.87297677 -91.6953125 101.03979492 C-89.86553616 96.80568036 -88.03108778 92.5736619 -86.19081116 88.34410095 C-85.91772629 87.7164534 -85.64464142 87.08880585 -85.36328125 86.44213867 C-84.9454966 85.48223778 -84.9454966 85.48223778 -84.51927185 84.50294495 C-82.47235478 79.7922312 -80.45081911 75.07103901 -78.43608093 70.34648132 C-76.86232416 66.66377638 -75.27636429 62.98639323 -73.68856812 59.3097229 C-72.91850405 57.51941161 -72.15338356 55.72696421 -71.39370728 53.93222046 C-62.75517961 33.54010702 -51.16930639 14.11455214 -29.66845703 5.28393555 C-19.83807559 1.71899831 -10.44858241 -0.00523756 0 0 Z " fill="#FEFEFE" transform="translate(777.765625,271.854736328125)"/>
</svg>
